<svg viewBox="0 0 32 32" xmlns="http://www.w3.org/2000/svg"><path d="m16 6c-7.168 0-13 5.832-13 13v7h26v-7c0-7.168-5.832-13-13-13zm0 2c.337536 0 .670119.0208671 1 .0507812v3.9492188h-9.4765625c2.0193307-2.4408306 5.0689605-4 8.4765625-4zm3 .4277344c2.171617.6172744 4.074062 1.8770176 5.476562 3.5722656h-5.476562zm-12.7851562 5.5722656h1.7851562v5h-3c0-1.801322.4438908-3.49772 1.2148438-5zm3.7851562 0h12v5h-1.421875c-.773433-1.76339-2.532512-3-4.578125-3s-3.804692 1.23661-4.578125 3h-1.421875zm14 0h1.785156c.770953 1.50228 1.214844 3.198678 1.214844 5h-3zm-8 4c1.654 0 3 1.346 3 3v3h-6v-3c0-1.654 1.346-3 3-3zm-11 3h6v3h-6zm16 0h6v3h-6z"/></svg>